<svg width="21" height="24" viewBox="0 0 21 24" fill="none" xmlns="http://www.w3.org/2000/svg">
<path d="M16 7.5V6C16 2.69156 13.3084 0 10 0C6.69156 0 4 2.69156 4 6V7.5H-0.5V20.25C-0.5 22.3211 1.17892 24 3.25 24H16.75C18.8211 24 20.5 22.3211 20.5 20.25V7.5H16ZM7 6C7 4.34578 8.34578 3 10 3C11.6542 3 13 4.34578 13 6V7.5H7V6ZM14.5 11.625C13.8787 11.625 13.375 11.1213 13.375 10.5C13.375 9.87867 13.8787 9.375 14.5 9.375C15.1213 9.375 15.625 9.87867 15.625 10.5C15.625 11.1213 15.1213 11.625 14.5 11.625ZM5.5 11.625C4.87867 11.625 4.375 11.1213 4.375 10.5C4.375 9.87867 4.87867 9.375 5.5 9.375C6.12133 9.375 6.625 9.87867 6.625 10.5C6.625 11.1213 6.12133 11.625 5.5 11.625Z" fill="#9F7A5F"/>
</svg>
