<svg width="28" height="28" viewBox="0 0 28 28" fill="none" xmlns="http://www.w3.org/2000/svg">
<path d="M18.55 14L8.55263 3.61201C8.37248 3.4294 8.27148 3.18321 8.27148 2.92671C8.27148 2.6702 8.37248 2.42401 8.55263 2.24141C8.64121 2.15146 8.7468 2.08002 8.86325 2.03127C8.9797 1.98251 9.10468 1.9574 9.23093 1.9574C9.35717 1.9574 9.48216 1.98251 9.59861 2.03127C9.71505 2.08002 9.82064 2.15146 9.90923 2.24141L20.8712 13.3126C21.0514 13.4952 21.1524 13.7414 21.1524 13.9979C21.1524 14.2544 21.0514 14.5006 20.8712 14.6832L9.90923 25.7544C9.82064 25.8444 9.71505 25.9158 9.59861 25.9645C9.48216 26.0133 9.35717 26.0384 9.23093 26.0384C9.10468 26.0384 8.9797 26.0133 8.86325 25.9645C8.7468 25.9158 8.64121 25.8444 8.55263 25.7544C8.37248 25.5718 8.27148 25.3256 8.27148 25.0691C8.27148 24.8126 8.37248 24.5664 8.55263 24.3838L18.55 14Z" fill="black"/>
</svg>
