<svg width="55" height="55" viewBox="0 0 55 55" fill="none" xmlns="http://www.w3.org/2000/svg">
<circle cx="27.5" cy="27.5" r="27" transform="rotate(-180 27.5 27.5)" fill="white" fill-opacity="0.96" stroke="#9F7A5F"/>
<path d="M22.8125 27.5L35.3092 40.485C35.5344 40.7133 35.6606 41.021 35.6606 41.3416C35.6606 41.6623 35.5344 41.97 35.3092 42.1983C35.1985 42.3107 35.0665 42.4 34.9209 42.4609C34.7754 42.5219 34.6191 42.5533 34.4613 42.5533C34.3035 42.5533 34.1473 42.5219 34.0017 42.4609C33.8562 42.4 33.7242 42.3107 33.6135 42.1983L19.911 28.3593C19.6858 28.131 19.5595 27.8233 19.5595 27.5026C19.5595 27.182 19.6858 26.8743 19.911 26.646L33.6135 12.807C33.7242 12.6946 33.8562 12.6053 34.0017 12.5443C34.1473 12.4834 34.3035 12.452 34.4613 12.452C34.6192 12.452 34.7754 12.4834 34.9209 12.5443C35.0665 12.6053 35.1985 12.6946 35.3092 12.807C35.5344 13.0353 35.6606 13.343 35.6606 13.6636C35.6606 13.9843 35.5344 14.292 35.3092 14.5203L22.8125 27.5Z" fill="#9F7A5F"/>
</svg>
