<svg width="55" height="55" viewBox="0 0 55 55" fill="none" xmlns="http://www.w3.org/2000/svg">
<circle cx="27.5" cy="27.5" r="27" fill="white" fill-opacity="0.96" stroke="#9F7A5F"/>
<path d="M33.1875 27.5L20.6908 14.515C20.4656 14.2867 20.3394 13.979 20.3394 13.6584C20.3394 13.3377 20.4656 13.03 20.6908 12.8017C20.8015 12.6893 20.9335 12.6 21.0791 12.5391C21.2246 12.4781 21.3809 12.4467 21.5387 12.4467C21.6965 12.4467 21.8527 12.4781 21.9983 12.5391C22.1438 12.6 22.2758 12.6893 22.3865 12.8017L36.089 26.6407C36.3142 26.869 36.4405 27.1767 36.4405 27.4974C36.4405 27.818 36.3142 28.1257 36.089 28.354L22.3865 42.193C22.2758 42.3054 22.1438 42.3947 21.9983 42.4557C21.8527 42.5166 21.6965 42.548 21.5387 42.548C21.3809 42.548 21.2246 42.5166 21.0791 42.4557C20.9335 42.3947 20.8015 42.3054 20.6908 42.193C20.4656 41.9647 20.3394 41.657 20.3394 41.3364C20.3394 41.0157 20.4656 40.708 20.6908 40.4798L33.1875 27.5Z" fill="#9F7A5F"/>
</svg>
